<?xml version="1.0" standalone="no"?>
<!DOCTYPE svg PUBLIC "-//W3C//DTD SVG 20010904//EN"
 "http://www.w3.org/TR/2001/REC-SVG-20010904/DTD/svg10.dtd">
<svg version="1.0" xmlns="http://www.w3.org/2000/svg"
 width="512.000000pt" height="512.000000pt" viewBox="0 0 512.000000 512.000000"
 preserveAspectRatio="xMidYMid meet">

<g transform="translate(0.000000,512.000000) scale(0.100000,-0.100000)"
fill="8e2cde"
 stroke="none">
<path d="M2368 4469 c-480 -46 -954 -294 -1266 -661 -649 -766 -605 -1896 102
-2604 752 -751 1965 -748 2716 5 508 511 686 1264 461 1950 -281 854 -1115
1397 -2013 1310z m492 -444 c201 -44 411 -137 573 -252 105 -74 266 -235 340
-340 118 -166 210 -378 254 -583 26 -121 26 -459 0 -580 -44 -206 -136 -418
-254 -583 -74 -104 -236 -266 -340 -340 -165 -118 -377 -210 -583 -254 -66
-14 -130 -18 -290 -18 -178 0 -219 3 -309 23 -594 133 -1029 574 -1158 1173
-26 120 -26 458 0 579 44 206 136 418 254 583 74 104 236 266 340 340 186 132
399 221 633 263 104 18 438 12 540 -11z"/>
<path d="M2475 3391 c-22 -10 -52 -31 -67 -47 -54 -58 -58 -83 -58 -339 l0
-235 -239 0 -239 0 -53 -28 c-151 -79 -142 -302 15 -373 36 -16 68 -19 279
-19 l237 0 0 -237 c0 -210 3 -243 19 -278 76 -165 306 -165 382 0 16 35 19 68
19 278 l0 237 235 0 c256 0 281 4 339 58 86 81 86 223 0 304 -58 54 -83 58
-339 58 l-235 0 0 238 c0 209 -3 242 -19 277 -49 106 -173 154 -276 106z"/>
</g>
</svg>
