<?xml version="1.0" standalone="no"?>
<!DOCTYPE svg PUBLIC "-//W3C//DTD SVG 20010904//EN"
 "http://www.w3.org/TR/2001/REC-SVG-20010904/DTD/svg10.dtd">
<svg version="1.0" xmlns="http://www.w3.org/2000/svg"
 width="512.000000pt" height="512.000000pt" viewBox="0 0 512.000000 512.000000"
 preserveAspectRatio="xMidYMid meet">

<g transform="translate(0.000000,512.000000) scale(0.100000,-0.100000)"
fill="#000000" stroke="none">
<path d="M4085 5107 c-85 -29 -126 -62 -325 -261 l-205 -206 500 -500 500
-500 207 208 c248 250 263 273 263 417 0 152 -10 166 -352 507 -247 246 -297
291 -347 314 -71 32 -178 41 -241 21z m225 -242 c57 -29 80 -58 80 -101 0 -70
-81 -106 -145 -64 -50 33 -101 21 -173 -41 -41 -36 -74 -45 -113 -29 -36 15
-49 37 -49 83 0 30 9 43 55 85 100 92 242 119 345 67z"/>
<path d="M3240 4325 l-185 -185 500 -500 500 -500 187 187 188 188 -497 497
c-274 274 -500 498 -503 498 -3 0 -88 -83 -190 -185z"/>
<path d="M1880 2965 c-574 -574 -1042 -1046 -1040 -1047 3 -2 29 -15 58 -28
65 -29 136 -103 164 -171 l21 -49 63 60 c47 46 69 60 92 60 61 0 108 -70 82
-122 -7 -13 -35 -46 -62 -74 l-49 -51 45 -17 c65 -25 140 -96 172 -164 15 -31
29 -59 31 -62 2 -2 368 360 813 805 766 766 811 809 844 809 51 0 86 -36 86
-88 0 -41 -3 -43 -805 -846 -443 -443 -805 -808 -805 -811 0 -4 12 -10 26 -13
69 -18 152 -95 193 -180 l26 -56 1048 1048 1047 1047 -125 125 -125 125 -97
-97 c-54 -53 -111 -102 -126 -107 -57 -22 -117 26 -117 91 0 13 40 62 107 130
l107 108 -124 125 -125 125 -855 -855 c-853 -853 -855 -855 -896 -855 -52 0
-88 35 -88 86 0 33 46 81 857 892 l857 857 -123 123 c-67 67 -124 122 -127
122 -3 0 -475 -470 -1050 -1045z"/>
<path d="M725 1755 c-5 -2 -23 -6 -39 -10 -29 -6 -177 -140 -197 -178 -10 -18
-239 -756 -239 -769 0 -5 6 -8 14 -8 7 0 51 -19 97 -42 66 -32 103 -60 170
-128 73 -72 94 -101 134 -183 26 -53 50 -97 53 -97 4 0 180 54 392 120 l385
118 77 80 c55 58 80 91 88 121 30 112 -52 221 -167 221 -58 0 -81 -9 -126 -46
-40 -33 -96 -32 -127 1 -34 36 -31 80 8 135 56 78 55 163 -1 227 -72 82 -162
84 -267 7 -42 -31 -84 -27 -117 12 -31 34 -29 72 6 120 59 80 61 167 5 234
-37 43 -112 76 -149 65z"/>
<path d="M196 622 c-11 -18 -106 -342 -106 -361 0 -32 17 -59 48 -75 18 -10
22 -15 10 -16 -24 0 -58 -48 -58 -82 0 -19 10 -40 29 -59 l29 -29 957 0 957 0
29 29 c16 16 29 39 29 51 0 29 -25 76 -47 86 -10 5 -432 11 -938 14 l-920 5
160 49 c88 26 162 50 163 51 2 2 -10 33 -27 69 -35 72 -111 161 -177 207 -51
35 -132 71 -138 61z"/>
<path d="M2434 166 c-44 -19 -62 -72 -39 -115 25 -49 41 -53 221 -49 160 3
166 4 185 27 28 35 25 92 -7 122 -24 23 -32 24 -177 26 -113 2 -160 -1 -183
-11z"/>
</g>
</svg>
