<?xml version="1.0" standalone="no"?>
<!DOCTYPE svg PUBLIC "-//W3C//DTD SVG 20010904//EN"
 "http://www.w3.org/TR/2001/REC-SVG-20010904/DTD/svg10.dtd">
<svg version="1.0" xmlns="http://www.w3.org/2000/svg"
 width="512.000000pt" height="512.000000pt" viewBox="0 0 512.000000 512.000000"
 preserveAspectRatio="xMidYMid meet">

<g transform="translate(0.000000,512.000000) scale(0.100000,-0.100000)"
fill="#000000" stroke="none">
<path d="M2177 5106 c-59 -21 -114 -62 -143 -106 -17 -25 -50 -121 -89 -258
l-62 -217 -554 -5 c-609 -6 -587 -3 -683 -69 -54 -37 -89 -78 -124 -145 -24
-46 -27 -61 -27 -156 0 -98 2 -110 32 -170 17 -36 48 -80 67 -99 l35 -34 -40
-44 c-64 -70 -93 -142 -97 -243 -3 -68 0 -96 17 -141 42 -110 125 -192 229
-226 37 -12 54 -23 57 -37 2 -12 47 -586 100 -1276 53 -690 102 -1291 110
-1335 36 -199 172 -378 357 -470 157 -77 122 -75 1198 -75 1076 0 1041 -2
1198 76 184 90 322 272 357 469 8 44 57 645 110 1335 53 690 98 1264 100 1276
3 14 20 25 57 37 104 34 187 116 229 226 32 86 25 205 -18 291 -17 36 -48 80
-67 99 l-35 34 40 44 c23 25 53 70 67 101 24 50 27 70 27 157 0 93 -2 105 -33
167 -39 80 -111 148 -192 181 -54 22 -65 22 -609 27 l-554 5 -62 218 c-44 151
-71 230 -91 259 -32 46 -99 93 -154 108 -57 16 -707 12 -753 -4z m763 -171
c25 -25 39 -60 79 -202 27 -94 52 -180 56 -192 l6 -21 -521 0 c-492 0 -521 1
-516 18 3 9 28 96 56 192 28 96 59 183 68 194 39 44 59 46 409 43 l333 -2 30
-30z m1431 -597 c25 -15 59 -46 75 -69 26 -38 29 -50 29 -123 0 -73 -3 -85
-29 -124 -16 -24 -50 -55 -75 -70 l-46 -27 -453 -5 -454 -5 -19 -24 c-24 -30
-24 -62 0 -92 l19 -24 454 -5 453 -5 48 -28 c26 -15 60 -47 75 -69 24 -37 27
-51 27 -123 0 -72 -3 -86 -27 -123 -15 -22 -49 -54 -75 -69 l-48 -28 -1765 0
-1765 0 -46 27 c-25 15 -59 46 -75 69 -26 38 -29 50 -29 124 0 74 3 86 29 124
16 23 50 54 75 69 l46 27 1196 5 c1159 5 1198 6 1218 24 29 26 28 76 -2 104
l-23 22 -1194 2 -1195 3 -48 28 c-164 97 -133 352 51 407 15 5 815 8 1777 7
l1750 -2 46 -27z m-201 -1196 c0 -16 -29 -404 -65 -863 -35 -459 -78 -1014
-95 -1234 -33 -438 -44 -514 -87 -601 -40 -83 -138 -184 -222 -228 -70 -36
-170 -66 -228 -66 l-32 0 40 57 c69 99 76 139 114 628 19 242 35 467 35 501 0
197 -141 363 -335 392 -217 34 -419 -114 -455 -333 -6 -34 -10 -299 -10 -613
l0 -552 -34 -38 -34 -37 -186 -3 c-152 -3 -191 0 -218 12 -61 29 -63 35 -68
328 -5 251 -6 269 -25 287 -11 11 -32 23 -47 26 -22 6 -33 1 -58 -23 l-30 -30
0 -249 c0 -229 5 -286 25 -337 8 -18 3 -19 -96 -14 -111 5 -167 22 -233 73
-42 32 -91 106 -105 160 -15 58 -83 954 -76 995 10 54 41 105 87 144 121 104
312 59 379 -89 16 -34 19 -68 19 -233 l0 -194 30 -30 c25 -24 36 -29 58 -23
15 3 36 15 47 26 18 18 20 35 23 173 5 255 -19 355 -114 456 -188 201 -529
146 -649 -105 -42 -88 -42 -162 -1 -677 40 -494 45 -524 119 -627 l37 -51 -28
0 c-58 1 -165 31 -231 65 -140 73 -248 225 -271 380 -10 65 -200 2489 -200
2549 l0 26 1610 0 1610 0 0 -28z m-859 -1572 c73 -20 148 -108 164 -190 10
-54 -63 -953 -82 -1008 -30 -91 -95 -158 -188 -198 -35 -15 -245 -34 -245 -23
0 2 7 26 15 53 13 41 15 143 15 618 0 488 2 574 15 605 51 121 175 179 306
143z"/>
<path d="M1783 2835 c-39 -16 -43 -29 -43 -131 0 -77 2 -87 25 -109 27 -28 42
-30 78 -14 35 16 47 50 47 133 0 106 -39 150 -107 121z"/>
<path d="M3284 2839 c-40 -14 -54 -48 -54 -126 0 -82 12 -116 47 -132 36 -16
51 -14 78 14 23 22 25 32 25 110 0 48 -4 95 -10 105 -13 23 -59 39 -86 29z"/>
<path d="M2464 2779 c-106 -13 -178 -64 -204 -145 -19 -57 -9 -170 22 -235 30
-66 89 -128 150 -161 62 -33 194 -33 256 0 105 56 174 165 180 289 9 154 -59
232 -221 253 -82 11 -98 11 -183 -1z"/>
</g>
</svg>
